<?xml version="1.0" standalone="no"?>
<!DOCTYPE svg PUBLIC "-//W3C//DTD SVG 20010904//EN"
 "http://www.w3.org/TR/2001/REC-SVG-20010904/DTD/svg10.dtd">
<svg version="1.0" xmlns="http://www.w3.org/2000/svg"
 width="512.000000pt" height="512.000000pt" viewBox="0 0 512.000000 512.000000"
 preserveAspectRatio="xMidYMid meet">

<g transform="translate(0.000000,512.000000) scale(0.100000,-0.100000)"
fill="#000000" stroke="none">
<path d="M1355 5113 c-201 -24 -375 -76 -544 -163 -411 -213 -701 -605 -787
-1065 -18 -94 -19 -171 -19 -1325 0 -1154 1 -1231 19 -1325 115 -617 594
-1096 1211 -1211 94 -18 171 -19 1335 -19 l1235 0 105 23 c464 102 830 378
1039 782 68 131 109 247 143 400 l23 105 0 1235 c0 1164 -1 1241 -19 1335
-107 576 -532 1036 -1093 1185 -182 49 -210 50 -1453 48 -641 0 -1178 -3
-1195 -5z m1275 -1223 c258 -27 454 -109 607 -254 247 -232 301 -604 138 -942
-133 -275 -390 -449 -697 -471 l-88 -6 0 -514 0 -513 -257 2 -258 3 0 1145 0
1145 225 32 c124 17 240 34 258 37 l32 5 0 -600 0 -599 24 0 c36 0 101 26 152
60 100 70 203 243 250 425 35 131 44 360 20 475 -46 216 -191 354 -416 396
-114 22 -313 14 -425 -16 -282 -76 -441 -275 -475 -595 -21 -188 9 -340 87
-449 l35 -49 -70 6 c-196 19 -330 108 -377 252 -26 80 -30 198 -11 295 66 330
364 597 774 696 165 40 311 51 472 34z"/>
</g>
</svg>
