<svg width="1600" height="1490" viewBox="0 0 1600 1490" fill="none" xmlns="http://www.w3.org/2000/svg">
<path d="M1059.16 252.388L1000.83 359.99C1008.93 340.426 1000.83 296.407 981.389 296.407C951.821 296.407 934.4 346.947 932.78 374.663C905.559 237.715 872.829 340.426 859.866 408.9C863.107 366.511 861.811 283.69 830.701 291.516C799.591 299.342 791.814 399.118 791.814 448.028C757.787 301.298 820.979 188.805 859.866 149.677C890.976 118.374 921.438 126.852 932.78 135.004C953.196 149.677 995.972 179.023 1030 198.587C1066.36 219.495 1065.64 240.975 1059.16 252.388Z" stroke="white" stroke-opacity="0.27"/>
<path d="M1011.22 427.045L1063.39 543.49C1052.32 524.406 1010.71 503.42 998.377 519.631C979.628 544.283 1010.46 590.659 1032.4 609.476C901.659 545.867 966.014 637.885 1014.53 691.845C981.464 662.43 912.014 611.316 898.772 642.186C885.53 673.056 963.275 742.42 1003.8 773.243C860.643 709.143 807.498 585.562 799.734 528.481C793.523 482.816 819.864 462.761 833.811 458.442C858.915 450.667 910.357 433.496 948.144 417.456C988.528 400.313 1005.87 414.449 1011.22 427.045Z" stroke="white" stroke-opacity="0.27"/>
<path d="M1113.25 594.552L1237.18 624.945C1215.32 621.954 1173.19 641.888 1178.41 661.576C1186.34 691.517 1241.87 695.689 1270.19 689.944C1139.67 754.002 1251.81 759.774 1324.2 754.653C1280.67 762.667 1197.67 786.05 1213.89 815.466C1230.11 844.882 1332.6 826.17 1381.82 813.136C1243.28 886.691 1113.13 852.68 1063.33 823.73C1023.48 800.57 1023.85 767.465 1029.01 753.808C1038.3 729.225 1056.37 678.09 1066.93 638.422C1078.22 596.028 1100.03 591.031 1113.25 594.552Z" stroke="white" stroke-opacity="0.27"/>
<path d="M1305.02 608.788L1411.3 538.169C1394.3 552.231 1380.44 596.729 1398.46 606.224C1425.86 620.662 1466.53 582.62 1481.48 557.885C1440.25 697.308 1520.43 618.692 1565.67 561.956C1542.1 599.414 1503.1 676.326 1535.73 684.31C1568.36 692.293 1623.99 604.196 1647.72 559.149C1608.05 710.904 1494.9 783.655 1439.87 800.704C1395.85 814.343 1371.73 791.66 1365.18 778.614C1353.38 755.131 1327.98 707.215 1305.94 672.581C1282.39 635.568 1293.48 616.135 1305.02 608.788Z" stroke="white" stroke-opacity="0.27"/>
<path d="M1439.43 476.099L1442.46 348.535C1444.24 370.528 1472.77 407.384 1490.87 398.059C1518.41 383.879 1510.54 328.748 1498.84 302.319C1589.47 416.014 1570.99 305.255 1550.43 235.664C1567.61 276.45 1608.29 352.482 1633.54 330.32C1658.78 308.158 1618.46 212.081 1595.15 166.814C1696.78 286.299 1691.54 420.72 1673.98 475.584C1659.93 519.475 1627.52 526.237 1613.07 524.132C1587.06 520.342 1533.24 513.695 1492.23 511.906C1448.4 509.994 1438.83 489.769 1439.43 476.099Z" stroke="white" stroke-opacity="0.27"/>
<path d="M1411.08 282.766L1313.09 201.047C1331.41 213.332 1378.02 213.919 1381.98 193.941C1388 163.561 1339.94 135.428 1311.97 128.152C1457.36 127.909 1359.14 73.4844 1291.86 46.3027C1334.48 58.2142 1419.32 73.6497 1417.67 40.1003C1416.01 6.5508 1315.71 -21.6406 1265.76 -31.5427C1422.53 -36.7984 1524.53 50.9055 1556.57 98.7835C1582.2 137.086 1567.33 166.669 1556.7 176.672C1537.56 194.679 1498.87 232.69 1471.97 263.691C1443.21 296.822 1421.42 291.736 1411.08 282.766Z" stroke="white" stroke-opacity="0.27"/>
<path d="M1246.93 183.656L1121.63 207.798C1142.74 201.385 1172.7 165.679 1159.74 149.967C1140.03 126.074 1087.83 145.475 1064.49 162.525C1156.33 49.8119 1052.03 91.4009 988.395 126.285C1024.6 100.824 1090.25 44.9147 1063.23 24.9593C1036.21 5.00385 950.893 64.8127 911.613 97.2115C1006.77 -27.481 1139.24 -50.9343 1196.58 -45.4293C1242.45 -41.0254 1255.95 -10.794 1256.96 3.77111C1258.79 29.9884 1263.73 83.9942 1270.7 124.45C1278.14 167.685 1260.41 181.334 1246.93 183.656Z" stroke="white" stroke-opacity="0.27"/>
<path d="M213.163 884.388L154.833 991.99C162.934 972.426 154.833 928.407 135.389 928.407C105.821 928.407 88.4002 978.947 86.7799 1006.66C59.5588 869.715 26.8287 972.426 13.8663 1040.9C17.1069 998.511 15.8107 915.69 -15.2991 923.516C-46.4089 931.341 -54.1864 1031.12 -54.1864 1080.03C-88.2127 933.298 -25.021 820.805 13.8663 781.677C44.9761 750.374 75.4378 758.852 86.7799 767.003C107.196 781.677 149.972 811.023 183.998 830.587C220.363 851.495 219.645 872.975 213.163 884.388Z" stroke="white" stroke-opacity="0.27"/>
<path d="M165.219 1059.04L217.393 1175.49C206.319 1156.41 164.706 1135.42 152.377 1151.63C133.628 1176.28 164.46 1222.66 186.399 1241.48C55.659 1177.87 120.014 1269.88 168.534 1323.84C135.464 1294.43 66.0145 1243.32 52.7721 1274.19C39.5296 1305.06 117.275 1374.42 157.803 1405.24C14.6427 1341.14 -38.5018 1217.56 -46.2657 1160.48C-52.4768 1114.82 -26.136 1094.76 -12.1892 1090.44C12.9151 1082.67 64.3566 1065.5 102.144 1049.46C142.528 1032.31 159.872 1046.45 165.219 1059.04Z" stroke="white" stroke-opacity="0.27"/>
<path d="M267.255 1226.55L391.182 1256.94C369.321 1253.95 327.194 1273.89 332.407 1293.58C340.335 1323.52 395.868 1327.69 424.195 1321.94C293.674 1386 405.814 1391.77 478.2 1386.65C434.672 1394.67 351.672 1418.05 367.889 1447.47C384.105 1476.88 486.602 1458.17 535.823 1445.14C397.283 1518.69 267.13 1484.68 217.327 1455.73C177.484 1432.57 177.848 1399.47 183.01 1385.81C192.303 1361.22 210.366 1310.09 220.931 1270.42C232.222 1228.03 254.032 1223.03 267.255 1226.55Z" stroke="white" stroke-opacity="0.27"/>
<path d="M459.023 1240.79L565.299 1170.17C548.296 1184.23 534.442 1228.73 552.461 1238.22C579.861 1252.66 620.533 1214.62 635.485 1189.88C594.25 1329.31 674.427 1250.69 719.67 1193.96C696.096 1231.41 657.104 1308.33 689.732 1316.31C722.36 1324.29 777.989 1236.2 801.724 1191.15C762.049 1342.9 648.896 1415.66 593.87 1432.7C549.849 1446.34 525.734 1423.66 519.179 1410.61C507.38 1387.13 481.98 1339.22 459.942 1304.58C436.389 1267.57 447.479 1248.13 459.023 1240.79Z" stroke="white" stroke-opacity="0.27"/>
<path d="M593.426 1108.1L596.462 980.535C598.242 1002.53 626.767 1039.38 644.874 1030.06C672.41 1015.88 664.545 960.748 652.844 934.319C743.466 1048.01 724.992 937.255 704.427 867.664C721.613 908.45 762.294 984.482 787.536 962.32C812.777 940.158 772.465 844.081 749.153 798.814C850.775 918.299 845.544 1052.72 827.979 1107.58C813.926 1151.47 781.518 1158.24 767.07 1156.13C741.064 1152.34 687.242 1145.7 646.229 1143.91C602.399 1141.99 592.83 1121.77 593.426 1108.1Z" stroke="white" stroke-opacity="0.27"/>
<path d="M565.084 914.766L467.086 833.047C485.414 845.332 532.015 845.92 535.976 825.941C541.999 795.561 493.938 767.428 465.965 760.152C611.358 759.909 513.14 705.484 445.856 678.303C488.482 690.214 573.321 705.65 571.667 672.1C570.013 638.551 469.708 610.359 419.763 600.457C576.531 595.202 678.533 682.905 710.568 730.784C736.196 769.086 721.333 798.669 710.699 808.672C691.556 826.679 652.875 864.69 625.965 895.691C597.207 928.822 575.418 923.736 565.084 914.766Z" stroke="white" stroke-opacity="0.27"/>
<path d="M400.927 815.656L275.632 839.798C296.744 833.385 326.696 797.679 313.736 781.967C294.029 758.074 241.828 777.475 218.489 794.525C310.33 681.812 206.027 723.401 142.395 758.285C178.598 732.824 244.248 676.915 217.228 656.959C190.208 637.004 104.893 696.813 65.6126 729.211C160.774 604.519 293.236 581.066 350.579 586.571C396.454 590.975 409.949 621.206 410.962 635.771C412.785 661.988 417.728 715.994 424.695 756.45C432.141 799.685 414.412 813.334 400.927 815.656Z" stroke="white" stroke-opacity="0.27"/>
</svg>
